<svg xmlns="http://www.w3.org/2000/svg" xmlns:xlink="http://www.w3.org/1999/xlink" viewBox="0 0 1898.44 367.65"><defs><style>.cls-1{fill:none;}.cls-2{fill:url(#New_Gradient_Swatch_copy);}.cls-3{font-size:312.28px;fill:#2c2d70;font-family:Montserrat-Light, Montserrat;font-weight:300;letter-spacing:-0.02em;}.cls-4{letter-spacing:-0.06em;}.cls-5{fill:url(#New_Gradient_Swatch_copy-10);}.cls-6{fill:url(#New_Gradient_Swatch_copy-11);}.cls-7{fill:url(#New_Gradient_Swatch_copy-12);}.cls-8{fill:url(#New_Gradient_Swatch_copy-13);}.cls-9{fill:url(#New_Gradient_Swatch_copy-14);}.cls-10{clip-path:url(#clip-path);}.cls-11{fill:url(#New_Gradient_Swatch_copy-15);}.cls-12{fill:url(#New_Gradient_Swatch_copy-16);}.cls-13{fill:url(#New_Gradient_Swatch_copy-17);}.cls-14{fill:url(#New_Gradient_Swatch_copy-18);}.cls-15{fill:url(#New_Gradient_Swatch_copy-19);}.cls-16{fill:url(#New_Gradient_Swatch_copy-20);}.cls-17{fill:url(#New_Gradient_Swatch_copy-21);}.cls-18{fill:url(#New_Gradient_Swatch_copy-22);}.cls-19{fill:url(#New_Gradient_Swatch_copy-23);}.cls-20{fill:url(#New_Gradient_Swatch_copy-24);}.cls-21{fill:url(#New_Gradient_Swatch_copy-25);}.cls-22{fill:url(#New_Gradient_Swatch_copy-26);}.cls-23{fill:url(#New_Gradient_Swatch_copy-27);}.cls-24{fill:url(#New_Gradient_Swatch_copy-28);}.cls-25{fill:url(#New_Gradient_Swatch_copy-29);}.cls-26{fill:url(#New_Gradient_Swatch_copy-30);}.cls-27{fill:url(#New_Gradient_Swatch_copy-31);}.cls-28{fill:url(#New_Gradient_Swatch_copy-32);}.cls-29{fill:url(#New_Gradient_Swatch_copy-33);}.cls-30{fill:url(#New_Gradient_Swatch_copy-34);}.cls-31{fill:url(#New_Gradient_Swatch_copy-35);}.cls-32{fill:url(#New_Gradient_Swatch_copy-36);}.cls-33{fill:#fff;}.cls-34{fill:url(#New_Gradient_Swatch_copy-37);}.cls-35{fill:url(#New_Gradient_Swatch_copy-38);}.cls-36{fill:url(#New_Gradient_Swatch_copy-39);}.cls-37{fill:url(#New_Gradient_Swatch_copy-40);}.cls-38{fill:url(#New_Gradient_Swatch_copy-41);}.cls-39{fill:url(#New_Gradient_Swatch_copy-42);}.cls-40{fill:url(#New_Gradient_Swatch_copy-43);}</style><linearGradient id="New_Gradient_Swatch_copy" x1="537.86" y1="273.04" x2="2088.33" y2="273.04" gradientUnits="userSpaceOnUse"><stop offset="0" stop-color="#124af4"/><stop offset="0.22" stop-color="#134df4"/><stop offset="0.41" stop-color="#1658f6"/><stop offset="0.59" stop-color="#1b6af7"/><stop offset="0.77" stop-color="#2283fa"/><stop offset="0.94" stop-color="#2ba3fe"/><stop offset="1" stop-color="#2fb1ff"/></linearGradient><linearGradient id="New_Gradient_Swatch_copy-10" x1="-333.45" y1="399.2" x2="190.02" y2="19.72" xlink:href="#New_Gradient_Swatch_copy"/><linearGradient id="New_Gradient_Swatch_copy-11" x1="-200.11" y1="583.13" x2="323.36" y2="203.65" xlink:href="#New_Gradient_Swatch_copy"/><linearGradient id="New_Gradient_Swatch_copy-12" x1="234.97" y1="280.15" x2="234.97" y2="352.81" xlink:href="#New_Gradient_Swatch_copy"/><linearGradient id="New_Gradient_Swatch_copy-13" x1="258.6" y1="280.15" x2="258.6" y2="352.81" xlink:href="#New_Gradient_Swatch_copy"/><linearGradient id="New_Gradient_Swatch_copy-14" x1="284.22" y1="280.15" x2="284.22" y2="352.81" xlink:href="#New_Gradient_Swatch_copy"/><clipPath id="clip-path" transform="translate(-45.93 -82.78)"><path class="cls-1" d="M248.93,0C111.45,0,0,111.45,0,248.93S111.45,497.86,248.93,497.86,497.86,386.41,497.86,248.93,386.41,0,248.93,0Zm0,405.1A156.17,156.17,0,1,1,405.1,248.93,156.17,156.17,0,0,1,248.93,405.1Z"/></clipPath><linearGradient id="New_Gradient_Swatch_copy-15" x1="-14.15" y1="317.32" x2="289.85" y2="37.32" xlink:href="#New_Gradient_Swatch_copy"/><linearGradient id="New_Gradient_Swatch_copy-16" x1="1.3" y1="334.1" x2="305.3" y2="54.1" xlink:href="#New_Gradient_Swatch_copy"/><linearGradient id="New_Gradient_Swatch_copy-17" x1="296.35" y1="378.48" x2="455.6" y2="231.98" xlink:href="#New_Gradient_Swatch_copy"/><linearGradient id="New_Gradient_Swatch_copy-18" x1="144.19" y1="489.24" x2="448.19" y2="209.24" xlink:href="#New_Gradient_Swatch_copy"/><linearGradient id="New_Gradient_Swatch_copy-19" x1="249.49" y1="362.93" x2="249.49" y2="435.6" xlink:href="#New_Gradient_Swatch_copy"/><linearGradient id="New_Gradient_Swatch_copy-20" x1="72.52" y1="411.42" x2="376.52" y2="131.42" xlink:href="#New_Gradient_Swatch_copy"/><linearGradient id="New_Gradient_Swatch_copy-21" x1="128.13" y1="283.52" x2="324.13" y2="113.19" xlink:href="#New_Gradient_Swatch_copy"/><linearGradient id="New_Gradient_Swatch_copy-22" x1="127.97" y1="283.33" x2="323.97" y2="113" xlink:href="#New_Gradient_Swatch_copy"/><linearGradient id="New_Gradient_Swatch_copy-23" x1="132.42" y1="288.45" x2="328.42" y2="118.12" xlink:href="#New_Gradient_Swatch_copy"/><linearGradient id="New_Gradient_Swatch_copy-24" x1="132.33" y1="288.36" x2="328.33" y2="118.02" xlink:href="#New_Gradient_Swatch_copy"/><linearGradient id="New_Gradient_Swatch_copy-25" x1="169.8" y1="331.47" x2="365.8" y2="161.14" xlink:href="#New_Gradient_Swatch_copy"/><linearGradient id="New_Gradient_Swatch_copy-26" x1="169.72" y1="331.38" x2="365.72" y2="161.04" xlink:href="#New_Gradient_Swatch_copy"/><linearGradient id="New_Gradient_Swatch_copy-27" x1="156.75" y1="316.45" x2="352.75" y2="146.11" xlink:href="#New_Gradient_Swatch_copy"/><linearGradient id="New_Gradient_Swatch_copy-28" x1="156.66" y1="316.35" x2="352.66" y2="146.02" xlink:href="#New_Gradient_Swatch_copy"/><linearGradient id="New_Gradient_Swatch_copy-29" x1="151.31" y1="310.2" x2="347.31" y2="139.86" xlink:href="#New_Gradient_Swatch_copy"/><linearGradient id="New_Gradient_Swatch_copy-30" x1="151.52" y1="310.43" x2="347.52" y2="140.1" xlink:href="#New_Gradient_Swatch_copy"/><linearGradient id="New_Gradient_Swatch_copy-31" x1="106.5" y1="258.64" x2="302.5" y2="88.3" xlink:href="#New_Gradient_Swatch_copy"/><linearGradient id="New_Gradient_Swatch_copy-32" x1="141.15" y1="298.5" x2="337.15" y2="128.16" xlink:href="#New_Gradient_Swatch_copy"/><linearGradient id="New_Gradient_Swatch_copy-33" x1="197.7" y1="363.57" x2="393.7" y2="193.24" xlink:href="#New_Gradient_Swatch_copy"/><linearGradient id="New_Gradient_Swatch_copy-34" x1="186.35" y1="350.52" x2="382.35" y2="180.19" xlink:href="#New_Gradient_Swatch_copy"/><linearGradient id="New_Gradient_Swatch_copy-35" x1="177.03" y1="339.79" x2="373.03" y2="169.46" xlink:href="#New_Gradient_Swatch_copy"/><linearGradient id="New_Gradient_Swatch_copy-36" x1="88.17" y1="428.41" x2="392.17" y2="148.41" xlink:href="#New_Gradient_Swatch_copy"/><linearGradient id="New_Gradient_Swatch_copy-37" x1="24.55" y1="326.42" x2="328.55" y2="46.42" xlink:href="#New_Gradient_Swatch_copy"/><linearGradient id="New_Gradient_Swatch_copy-38" x1="70.48" y1="409.2" x2="374.48" y2="129.2" xlink:href="#New_Gradient_Swatch_copy"/><linearGradient id="New_Gradient_Swatch_copy-39" x1="208.59" y1="223.78" x2="243.43" y2="196.94" xlink:href="#New_Gradient_Swatch_copy"/><linearGradient id="New_Gradient_Swatch_copy-40" x1="105.05" y1="446.74" x2="409.05" y2="166.74" xlink:href="#New_Gradient_Swatch_copy"/><linearGradient id="New_Gradient_Swatch_copy-41" x1="106.3" y1="448.1" x2="410.3" y2="168.1" xlink:href="#New_Gradient_Swatch_copy"/><linearGradient id="New_Gradient_Swatch_copy-42" x1="21.78" y1="323.42" x2="325.78" y2="43.42" xlink:href="#New_Gradient_Swatch_copy"/><linearGradient id="New_Gradient_Swatch_copy-43" x1="72.42" y1="411.31" x2="376.42" y2="131.31" xlink:href="#New_Gradient_Swatch_copy"/></defs><title>Asset 1</title><g id="Layer_2" data-name="Layer 2"><g id="Layer_1-2" data-name="Layer 1"><path class="cls-2" d="M652.47,360c-11.55,7.81-24,12.18-37.16,12.5-24,0-41.85-14.37-41.85-46.85v-94H549.73V212h23.73V168.58h24V212l52.15-.31v20H597.51v89.63c0,20,7.81,27.48,21.86,27.48q12.64,0,26.23-8.43Z" transform="translate(-45.93 -82.78)"/><path class="cls-2" d="M707.43,243.22c10.93-24.05,31.23-37.16,59-37.48v24.67c-34.66-.62-56.21,20.93-59,53.41v87.44H683.07V206.68h24.36Z" transform="translate(-45.93 -82.78)"/><path class="cls-2" d="M881.37,346c-13.11,17.8-34,26.55-60.27,26.55-34,0-55.9-21.87-55.9-50.28,0-28.73,22.8-46.85,61.52-47.16h54v-9.68c0-24-15-38.41-44-38.41-18.12,0-35,6.87-52.16,18.74l-10.3-17.8c21.24-14.06,39-22.18,67.14-22.18,40.6,0,63.08,21.55,63.4,56.84l.31,108.68H881.37Zm-.31-31.54V294.75H829.85c-27.48,0-41.85,8.43-41.85,26.54s14.68,30,37.79,30C853.58,351.27,874.82,337.22,881.06,314.42Z" transform="translate(-45.93 -82.78)"/><path class="cls-2" d="M1104.34,371.26H1080V336c-12.17,23.11-34.66,36.54-64,36.54-46.85,0-79.32-34.67-79.32-83.7,0-49.34,32.47-83.38,79-83.38,29.36,0,52.16,13.43,64.33,36.85V139.54h24.36ZM1080,289.44c0-35.92-24.67-61.84-59.33-61.84-35,0-59.65,25.92-59.65,61.84,0,35.6,24.67,61.2,59.65,61.2C1055.31,350.64,1080,325,1080,289.44Z" transform="translate(-45.93 -82.78)"/><path class="cls-2" d="M1300.76,298.49H1166.48c4.37,32.17,27.8,52.47,59.65,52.47,20.3,0,38.1-7.19,50.9-20.61l13.43,14.36c-15.62,17.49-38.72,27.48-66.21,27.48-48.4,0-81.81-34-81.81-83.07s33.72-83.06,81.5-83.06C1277,205.74,1303.26,242.59,1300.76,298.49Zm-21.86-20c-1.56-31.54-22.79-51.53-55-51.53-31.23,0-53.71,20.3-57.46,51.53Z" transform="translate(-45.93 -82.78)"/><path class="cls-2" d="M1337.92,371.26V139.54h24.36V371.26Z" transform="translate(-45.93 -82.78)"/><path class="cls-2" d="M1558.71,298.49H1424.43c4.37,32.17,27.79,52.47,59.64,52.47,20.3,0,38.1-7.19,50.91-20.61l13.42,14.36c-15.61,17.49-38.72,27.48-66.2,27.48-48.4,0-81.82-34-81.82-83.07s33.73-83.06,81.51-83.06C1535,205.74,1561.21,242.59,1558.71,298.49Zm-21.86-20c-1.56-31.54-22.8-51.53-55-51.53-31.23,0-53.72,20.3-57.46,51.53Z" transform="translate(-45.93 -82.78)"/><path class="cls-2" d="M1696.43,346c-13.12,17.8-34,26.55-60.28,26.55-34,0-55.89-21.87-55.89-50.28,0-28.73,22.79-46.85,61.52-47.16h54v-9.68c0-24-15-38.41-44-38.41-18.11,0-35,6.87-52.15,18.74l-10.31-17.8c21.24-14.06,39-22.18,67.14-22.18,40.6,0,63.09,21.55,63.4,56.84l.31,108.68h-23.73Zm-.32-31.54V294.75H1644.9c-27.48,0-41.85,8.43-41.85,26.54s14.68,30,37.79,30C1668.63,351.27,1689.87,337.22,1696.11,314.42Z" transform="translate(-45.93 -82.78)"/><path class="cls-2" d="M1919.39,371.26H1895V336c-12.18,23.11-34.67,36.54-64,36.54-46.84,0-79.32-34.67-79.32-83.7,0-49.34,32.48-83.38,79-83.38,29.35,0,52.15,13.43,64.33,36.85V139.54h24.35ZM1895,289.44c0-35.92-24.67-61.84-59.34-61.84-35,0-59.64,25.92-59.64,61.84,0,35.6,24.67,61.2,59.64,61.2C1870.37,350.64,1895,325,1895,289.44Z" transform="translate(-45.93 -82.78)"/><text class="cls-3" transform="translate(491.93 288.47)">t<tspan class="cls-4" x="115.54" y="0">r</tspan><tspan x="211.73" y="0">adelead</tspan></text><circle class="cls-5" cx="144.25" cy="52.9" r="7.43"/><circle class="cls-6" cx="203" cy="290.9" r="14.92"/><rect class="cls-7" x="228.83" y="318.16" width="12.29" height="40.19"/><rect class="cls-8" x="252.45" y="312.72" width="12.29" height="40.19"/><rect class="cls-9" x="278.07" y="302.22" width="12.29" height="40.19"/><g class="cls-10"><path class="cls-11" d="M68.26,254.93H51.93a6,6,0,0,1,0-12H68.26a6,6,0,0,1,0,12Z" transform="translate(-45.93 -82.78)"/><path class="cls-12" d="M93.76,280.43a31.5,31.5,0,1,1,31.5-31.5A31.53,31.53,0,0,1,93.76,280.43Zm0-51a19.5,19.5,0,1,0,19.5,19.5A19.53,19.53,0,0,0,93.76,229.43Z" transform="translate(-45.93 -82.78)"/><path class="cls-13" d="M444,254.93h-13.6a6,6,0,0,1,0-12H444a6,6,0,0,1,0,12Z" transform="translate(-45.93 -82.78)"/><path class="cls-14" d="M405.1,280.21a31.28,31.28,0,1,1,31.27-31.28A31.31,31.31,0,0,1,405.1,280.21Zm0-50.56a19.28,19.28,0,1,0,19.27,19.28A19.3,19.3,0,0,0,405.1,229.65Z" transform="translate(-45.93 -82.78)"/></g><path class="cls-15" d="M248.93,450.43c-68.23,0-107.72-29.37-111.65-36.88-.76-1.45-2.54-4.86-1.68-51.9l12,.22c-.36,19.25-.25,41,.5,46.18,5.59,6,40,30.38,100.83,30.38,62.66,0,96.31-24.45,101.24-30.06,1-4.91,1.5-27.43,1.43-47.26l12-.05c.17,47.33-2,51.45-2.68,52.81-2.41,4.63-14.69,13.73-31.08,20.95C313.67,441.94,286.5,450.43,248.93,450.43ZM148.22,408.74Z" transform="translate(-45.93 -82.78)"/><path class="cls-16" d="M248.93,411.1c-89.42,0-162.17-72.75-162.17-162.17S159.51,86.76,248.93,86.76,411.1,159.51,411.1,248.93,338.35,411.1,248.93,411.1Zm0-312.34c-82.8,0-150.17,67.37-150.17,150.17S166.13,399.1,248.93,399.1,399.1,331.73,399.1,248.93,331.73,98.76,248.93,98.76Z" transform="translate(-45.93 -82.78)"/><path class="cls-17" d="M175.68,263.27a2.49,2.49,0,0,1-2.5-2.5V223.64a2.5,2.5,0,0,1,5,0v37.13A2.5,2.5,0,0,1,175.68,263.27Z" transform="translate(-45.93 -82.78)"/><path class="cls-18" d="M185.34,244.71H165.23a2.5,2.5,0,0,1,0-5h20.11a2.5,2.5,0,0,1,0,5Z" transform="translate(-45.93 -82.78)"/><path class="cls-19" d="M225.18,216.52a2.49,2.49,0,0,1-2.5-2.5V201.65a2.5,2.5,0,0,1,5,0V214A2.49,2.49,0,0,1,225.18,216.52Z" transform="translate(-45.93 -82.78)"/><path class="cls-20" d="M235.24,210.34h-20.5a2.5,2.5,0,0,1,0-5h20.5a2.5,2.5,0,0,1,0,5Z" transform="translate(-45.93 -82.78)"/><path class="cls-21" d="M290.93,237.41a2.5,2.5,0,0,1-2.5-2.5v-17.4a2.5,2.5,0,0,1,5,0v17.4A2.5,2.5,0,0,1,290.93,237.41Z" transform="translate(-45.93 -82.78)"/><path class="cls-22" d="M299.05,228.71H282.42a2.5,2.5,0,0,1,0-5h16.63a2.5,2.5,0,0,1,0,5Z" transform="translate(-45.93 -82.78)"/><path class="cls-23" d="M306.84,196.63a2.5,2.5,0,0,1-2.5-2.5V177.88a2.5,2.5,0,0,1,5,0v16.25A2.5,2.5,0,0,1,306.84,196.63Z" transform="translate(-45.93 -82.78)"/><path class="cls-24" d="M315.35,188.51H298a2.5,2.5,0,0,1,0-5h17.4a2.5,2.5,0,0,1,0,5Z" transform="translate(-45.93 -82.78)"/><path class="cls-25" d="M196.05,279.81a2.5,2.5,0,0,1-2.5-2.5v-12a2.5,2.5,0,0,1,5,0v12A2.5,2.5,0,0,1,196.05,279.81Z" transform="translate(-45.93 -82.78)"/><path class="cls-26" d="M202.24,273.82H190.81a2.5,2.5,0,0,1,0-5h11.43a2.5,2.5,0,0,1,0,5Z" transform="translate(-45.93 -82.78)"/><path class="cls-27" d="M176.93,211.43a14,14,0,1,1,14-14A14,14,0,0,1,176.93,211.43Zm0-22a8,8,0,1,0,8,8A8,8,0,0,0,176.93,189.43Z" transform="translate(-45.93 -82.78)"/><path class="cls-28" d="M270.1,198.48a12.05,12.05,0,1,1,12-12A12.07,12.07,0,0,1,270.1,198.48Zm0-17.1a5.05,5.05,0,1,0,5,5.05A5.06,5.06,0,0,0,270.1,181.38Z" transform="translate(-45.93 -82.78)"/><path class="cls-29" d="M218.54,330.36a253.23,253.23,0,0,1-41.79-3.18l.37-2a267.61,267.61,0,0,0,62.95,2.31c32.44-2.56,78.29-12.47,112.5-45.15l1.38,1.45c-34.65,33.09-81,43.12-113.77,45.7C232.54,330.12,225.26,330.36,218.54,330.36Z" transform="translate(-45.93 -82.78)"/><path class="cls-30" d="M189.43,321.47a208.34,208.34,0,0,1-25.73-1.38l.28-2c.31,0,31,4.23,69.89-2.3,35.87-6,86.32-22.65,123-67.68l1.55,1.27c-37.05,45.52-88,62.32-124.24,68.39A272.26,272.26,0,0,1,189.43,321.47Z" transform="translate(-45.93 -82.78)"/><path class="cls-31" d="M159.25,314.87c-2.23,0-3.46,0-3.52-.05l.08-2c.36,0,35.76,1.26,78-10.3,24.81-6.78,47.1-16.58,66.24-29.12,23.91-15.66,43-35.66,56.64-59.47l1.74,1c-31.34,54.53-84.81,78.79-124.15,89.54A298.68,298.68,0,0,1,159.25,314.87Z" transform="translate(-45.93 -82.78)"/><path class="cls-32" d="M177.93,333.84a6,6,0,0,1-4.51-9.95L253.92,232a6,6,0,0,1,10.4,2.81l9.35,48.35,78-90.95a6,6,0,1,1,9.11,7.81L274.69,300.38a6,6,0,0,1-10.45-2.77l-9.37-48.5-72.43,82.68A6,6,0,0,1,177.93,333.84Z" transform="translate(-45.93 -82.78)"/><circle class="cls-33" cx="210.5" cy="155.15" r="14.29"/><circle class="cls-34" cx="210.5" cy="155.15" r="6.54"/><path class="cls-35" d="M256.43,247.47a9.54,9.54,0,1,1,9.54-9.54A9.55,9.55,0,0,1,256.43,247.47Zm0-13.08a3.54,3.54,0,1,0,3.54,3.54A3.55,3.55,0,0,0,256.43,234.39Z" transform="translate(-45.93 -82.78)"/><circle class="cls-33" cx="225.2" cy="210.98" r="13.77"/><circle class="cls-36" cx="225.2" cy="210.98" r="6.54"/><path class="cls-37" d="M271.13,303.3a9.54,9.54,0,1,1,9.54-9.54A9.55,9.55,0,0,1,271.13,303.3Zm0-13.07a3.54,3.54,0,1,0,3.54,3.53A3.53,3.53,0,0,0,271.13,290.23Z" transform="translate(-45.93 -82.78)"/><path class="cls-38" d="M405.1,256.34a6,6,0,0,1-6-6V95.45a6,6,0,1,1,12,0V250.34A6,6,0,0,1,405.1,256.34Z" transform="translate(-45.93 -82.78)"/><circle class="cls-39" cx="359.17" cy="12.67" r="12.67"/><path class="cls-40" d="M249.51,347.76c-28.92,0-57.6-5.47-80.76-15.4-7.94-3.41-33.82-15.57-33.82-29.26,0-4,.11-26.66.22-50.69.13-27,.26-54.88.26-60.31,0-4.79,3.73-9.69,11.39-15,6.34-4.37,15-8.74,24.93-12.65a219.64,219.64,0,0,1,78.2-14.71c54.88,0,113.67,25.24,113.67,43V303.1c0,13.52-25.68,25.71-33.55,29.13C307,342.25,278.34,347.76,249.51,347.76ZM146.93,303c1.3,6.34,38.29,32.75,102.58,32.75,26.49,0,52.84-4.92,74.18-13.87,19.92-8.35,27.37-16.71,27.91-18.91V193.19c-1.4-2.84-11.54-10.8-31-18.29a201.61,201.61,0,0,0-70.67-13.14,208.84,208.84,0,0,0-71,12.82c-20.79,7.74-30.13,15.4-31.48,18,0,6.41-.14,33.6-.26,59.91C147,276.31,146.93,298.84,146.93,303Z" transform="translate(-45.93 -82.78)"/></g></g></svg>